<svg xmlns="http://www.w3.org/2000/svg" xml:space="preserve" width="1500" height="1500" data-id="lg_r8XjvwUgINFn2RynUc" data-version="1" viewBox="0 0 1500 1500"><path stroke="transparent" d="M0 0h1500v1500H0z"/><g data-padding="20"><g transform="translate(-571.429 -575.702)scale(1.72194)"><rect width="333.076" height="253.324" x="123.085" y="204.343" fill="none" rx="0" ry="0" transform="translate(280.84 213.8)scale(1.68)"/><path fill="#d5d5d5" d="m743.667 643.229-141.71 209.62v-118.71l57.06-90.91Zm-154.22 244.22h-81.35v-244.22h81.35Zm158.09 0h-87.97l-27.61-56.87 48.22-72.33Zm196.73-62.76h-91.29v-48.95h59.08v-83.74h-59.08v-48.77h91.29l48.77 48.77v83.74Zm-104.17 62.76h-79.87v-244.22h79.87Z"/></g><path fill="transparent" stroke="transparent" stroke-width="1.786" d="M250 369.643h1000v760.714H250z"/></g></svg>